PathFileType	4	(X/Y/Z)	C:\Users\Basilio\Documents\Thesis Gigler\squatting_fais\c3dfiles\058\SJ_pre1\markers_experimental.trc
DataRate	CameraRate	NumFrames	NumMarkers	Units	OrigDataRate	OrigDataStartFrame	OrigNumFrames
200.000000	200.000000	4	61	mm	200.000000	393	1573
Frame#	Time	FHD			LBHD			RBHD			C7			T10			CLAV			LSHO			LUUPA			LMUPA			LDUPA			LLEP			LMEP			LRAD			LUL			LRFIN			RSHO			RUPA1			RMUPA			RDUPA			RLEP			RMEP			RRAD			RUL			RUFIN			LASI			RASI			USACR			LSACR			RSACR			LTHI1			LTHI2			LTHI3			LTHI4			LLFC			LMFC			LTIB1			LTIB2			LTIB3			LTIB4			LLMAL			LMMAL			LHEE			LMT1			LMT2			LMT5			RTHI			RTHI2			RTHI3			RTHI4			RLFC			RMFC			RTIB1			RTIB2			RTIB3			RTIB4			RLMAL			RMMAL			RHEE			RMT1			RMT2			RMT5			
		X1	Y1	Z1	X2	Y2	Z2	X3	Y3	Z3	X4	Y4	Z4	X5	Y5	Z5	X6	Y6	Z6	X7	Y7	Z7	X8	Y8	Z8	X9	Y9	Z9	X10	Y10	Z10	X11	Y11	Z11	X12	Y12	Z12	X13	Y13	Z13	X14	Y14	Z14	X15	Y15	Z15	X16	Y16	Z16	X17	Y17	Z17	X18	Y18	Z18	X19	Y19	Z19	X20	Y20	Z20	X21	Y21	Z21	X22	Y22	Z22	X23	Y23	Z23	X24	Y24	Z24	X25	Y25	Z25	X26	Y26	Z26	X27	Y27	Z27	X28	Y28	Z28	X29	Y29	Z29	X30	Y30	Z30	X31	Y31	Z31	X32	Y32	Z32	X33	Y33	Z33	X34	Y34	Z34	X35	Y35	Z35	X36	Y36	Z36	X37	Y37	Z37	X38	Y38	Z38	X39	Y39	Z39	X40	Y40	Z40	X41	Y41	Z41	X42	Y42	Z42	X43	Y43	Z43	X44	Y44	Z44	X45	Y45	Z45	X46	Y46	Z46	X47	Y47	Z47	X48	Y48	Z48	X49	Y49	Z49	X50	Y50	Z50	X51	Y51	Z51	X52	Y52	Z52	X53	Y53	Z53	X54	Y54	Z54	X55	Y55	Z55	X56	Y56	Z56	X57	Y57	Z57	X58	Y58	Z58	X59	Y59	Z59	X60	Y60	Z60	X61	Y61	Z61	

394	1.965	-150.6285705566407	1764.88720703125	-803.3297119140627	-300.4612731933594	1690.989135742188	-873.942077636719	-146.2373352050782	1777.826538085938	-945.7845458984377	-313.1320495605469	1573.809204101563	-900.4995117187502	-368.4212951660157	1262.222534179688	-896.2304687500002	-165.2803344726563	1496.593139648438	-879.8582153320315	-160.5355224609375	1554.792114257813	-1051.278930664063	-306.3442993164063	1458.463134765625	-1214.625244140625	-281.1240234375001	1415.204223632813	-1223.360473632813	-335.0660400390626	1405.270629882813	-1251.192016601563	-372.1776123046876	1334.140380859375	-1282.11669921875	-428.5596618652345	1336.312622070313	-1232.099243164063	-351.6265869140626	1136.083740234375	-1092.664184570313	-329.4281616210938	1083.21923828125	-1151.072265625	-277.2475585937501	1140.790649414063	-1085.637451171875	-202.4843902587891	1560.251098632813	-707.9204711914064	-359.7600097656251	1449.237182617188	-568.0635375976564	-333.5880432128907	1406.414794921875	-564.5474853515626	-382.3500671386719	1390.862670898438	-535.1168212890626	-420.543426513672	1335.175170898438	-509.9261779785157	-477.3822021484376	1319.7685546875	-577.7326049804689	-333.4832763671876	1142.928100585938	-677.9578857421876	-321.5129089355469	1093.813354492188	-615.1136474609376	-261.5882873535157	1115.7236328125	-696.5169067382814	-204.0390319824219	1035.166625976563	-1009.079956054688	-207.5162048339844	1036.345581054688	-775.1289062500002	-387.219451904297	1144.221313476563	-883.6843261718752	-398.2548217773439	1113.5068359375	-911.3887939453127	-397.8320617675782	1113.211303710938	-854.1363525390627	-274.8456115722657	771.416198730469	-1115.46875	-249.9735412597657	690.0142822265626	-1120.142700195313	-205.2103729248047	687.4259033203126	-1096.833740234375	-281.3459167480469	639.2244262695314	-1114.20947265625	-284.1686401367188	539.5214233398439	-1114.665405273438	-253.6819458007813	517.2764282226564	-994.2303466796877	-241.0735168457032	397.9849243164064	-1099.794067382813	-302.3580322265626	376.0308227539063	-1154.357299804688	-263.2356262207032	360.9603576660157	-1135.674926757813	-273.8269653320313	275.9845581054688	-1120.604736328125	-363.9136047363282	92.22998046875001	-1150.818481445313	-329.6594238281251	95.74753570556642	-1062.286499023438	-421.8317871093751	50.35243606567384	-1098.630249023438	-195.4770660400391	61.86400604248048	-1111.953247070313	-199.0237121582032	61.52809524536134	-1158.901611328125	-252.6981506347657	37.68521118164063	-1207.636840820313	-331.1557922363282	848.4310302734377	-685.5348510742189	-294.1676635742188	794.7837524414065	-672.4782104492189	-260.6688232421876	794.6634521484377	-674.0065307617189	-320.2242431640626	714.5621337890626	-683.0542602539064	-312.4869384765626	537.6678466796876	-676.3309326171876	-271.4122924804688	504.0922241210939	-800.4678344726565	-269.9148559570313	320.0473632812501	-723.1323852539064	-313.8055419921876	258.3433837890626	-643.1546020507814	-280.4067077636719	244.8190460205079	-674.6504516601564	-291.6727600097657	194.8807830810547	-700.6046752929689	-353.0789489746094	94.37691497802736	-642.8021850585939	-323.8896789550782	103.8634414672852	-732.9536132812501	-416.7799377441407	48.48134613037111	-695.2640991210939	-196.2580566406251	57.25497817993165	-697.2246093750001	-194.7756958007813	62.33969497680665	-645.9769897460939	-238.3885650634766	26.75974845886231	-592.2355957031251	
395	1.97	-150.6758575439453	1764.77685546875	-803.4279785156252	-300.4495544433594	1690.999755859375	-874.0200195312502	-146.1500854492188	1777.762084960938	-945.851257324219	-313.1415100097657	1573.780639648438	-900.571472167969	-368.5889282226563	1262.160400390625	-896.2415771484377	-165.3848571777344	1496.530029296875	-879.9411621093752	-160.5313415527344	1554.73876953125	-1051.367919921875	-306.3267822265626	1458.438110351563	-1214.696533203125	-281.1231994628907	1415.188354492188	-1223.474609375	-335.0497131347657	1405.278930664063	-1251.304321289063	-372.2107238769532	1334.124389648438	-1282.199829101563	-428.6315307617189	1336.294189453125	-1232.170288085938	-351.6842346191407	1136.06787109375	-1092.762451171875	-329.5448303222657	1083.218994140625	-1151.180419921875	-277.2535095214844	1140.797241210938	-1085.725952148438	-202.6614990234376	1560.038696289063	-707.9053955078126	-359.8632202148438	1449.286376953125	-568.1487426757814	-333.8155212402344	1406.443725585938	-564.6154785156251	-382.5616455078126	1390.85888671875	-535.2334594726564	-420.7213134765626	1335.166748046875	-510.0517578125001	-477.5230102539064	1319.812622070313	-577.8621215820314	-333.7713317871094	1142.909545898438	-678.0769042968751	-321.6464538574219	1093.885009765625	-615.2437744140626	-261.7362060546876	1115.7490234375	-696.6145629882814	-204.1536865234376	1035.244995117188	-1009.130004882813	-208.0688018798829	1036.197021484375	-775.103698730469	-387.4182739257814	1144.248901367188	-883.7920532226565	-398.4104919433595	1113.51416015625	-911.5064086914065	-398.0942687988282	1113.178100585938	-854.2680664062502	-274.8675537109376	771.365905761719	-1115.58642578125	-250.0000915527344	689.9915771484376	-1120.208618164063	-205.2641296386719	687.4028320312501	-1096.883911132813	-281.5088195800782	639.2293090820314	-1114.183349609375	-284.1345214843751	539.4541625976564	-1114.732666015625	-253.6293182373047	517.1995849609376	-994.2805175781252	-241.0734863281251	397.9111328125001	-1099.85986328125	-302.2059020996094	375.9846191406251	-1154.442504882813	-263.1919555664063	360.9409790039063	-1135.770629882813	-273.8023071289063	275.9604797363282	-1120.65625	-363.8118286132813	92.23164367675783	-1150.835083007813	-329.6516418457032	95.75335693359376	-1062.32666015625	-421.8628234863282	50.46843338012697	-1098.62109375	-195.5408325195313	61.8263511657715	-1111.969116210938	-199.7853698730469	60.98045730590822	-1158.846069335938	-252.6826477050782	37.67270278930665	-1207.629760742188	-331.3488159179688	848.4487915039065	-685.6245727539064	-294.3062133789063	794.8201904296877	-672.5015869140626	-260.8231201171876	794.7043457031252	-674.1176757812501	-320.3727722167969	714.4643554687501	-683.0491333007814	-312.5869140625001	537.6348876953126	-676.4277954101564	-271.6392211914063	504.121307373047	-800.5339355468752	-270.0997314453126	320.3246154785157	-723.1421508789064	-313.8625183105469	258.3204956054688	-643.1771240234376	-280.4606933593751	244.8007354736329	-674.6250610351564	-291.6765136718751	194.9088439941407	-700.6234741210939	-353.0869140625001	94.37902069091798	-642.8053588867189	-323.8687133789063	103.8771362304688	-732.9477539062501	-416.9015502929689	48.46113967895509	-695.3016357421876	-196.3487396240235	57.34196090698244	-697.2392578125001	-194.7911987304688	62.35152816772462	-645.9779052734376	-238.3085174560547	26.85310935974122	-592.2398681640626	
396	1.975	-150.6676635742188	1764.809936523438	-803.5203247070315	-300.4497680664063	1690.9609375	-874.1511840820315	-146.0345306396485	1777.742065429688	-945.9028320312502	-313.1944580078126	1573.784912109375	-900.6507568359377	-368.6731872558594	1262.216430664063	-896.398620605469	-165.398193359375	1496.4658203125	-880.0107421875002	-160.4920501708985	1554.630493164063	-1051.4228515625	-306.2602844238282	1458.38720703125	-1214.784301757813	-281.1199035644532	1415.117431640625	-1223.5908203125	-335.0350341796876	1405.266235351563	-1251.413452148438	-372.1802978515626	1334.065551757813	-1282.33154296875	-428.5775756835939	1336.282958984375	-1232.317504882813	-351.8063659667969	1135.99658203125	-1092.872802734375	-329.5951232910157	1083.192504882813	-1151.288696289063	-277.4251098632813	1140.803833007813	-1085.821044921875	-202.7823791503907	1560.005737304688	-707.9663085937501	-360.1047668457032	1449.208984375	-568.2734375000001	-333.9245300292969	1406.474487304688	-564.7385253906251	-382.8019714355469	1390.86572265625	-535.3435668945314	-420.8714904785157	1335.255493164063	-510.0979309082032	-477.7059631347657	1319.8232421875	-577.9445800781251	-333.9603271484376	1142.913696289063	-678.1788940429689	-321.8286743164063	1093.878173828125	-615.3012695312501	-262.0292053222657	1115.8662109375	-696.6960449218751	-204.3451843261719	1035.163940429688	-1009.173278808594	-208.3120269775391	1036.137329101563	-775.1562500000002	-387.6881713867189	1144.189697265625	-883.7825317382815	-398.5536193847657	1113.488159179688	-911.603942871094	-398.2804260253907	1113.255126953125	-854.4149169921877	-274.9597778320313	771.4102783203127	-1115.64111328125	-249.9655303955079	689.9875488281251	-1120.317626953125	-205.2280426025391	687.4343261718751	-1096.953247070313	-281.4835205078126	639.2285156250001	-1114.251953125	-284.1041259765626	539.4418334960939	-1114.813598632813	-253.4629364013672	517.2064819335939	-994.3655395507815	-241.0767517089844	397.8816833496095	-1099.892578125	-302.1183166503907	376.0119934082032	-1154.571655273438	-263.2195434570313	360.9114379882813	-1135.810546875	-273.8399658203126	275.9057312011719	-1120.73486328125	-363.8332519531251	92.21160125732423	-1150.86328125	-329.6543273925782	95.75537872314455	-1062.363525390625	-421.784149169922	50.3697967529297	-1098.630249023438	-195.5578002929688	61.84785461425783	-1111.922973632813	-199.7303619384766	60.08487701416017	-1158.947998046875	-252.7456512451172	37.64516067504884	-1207.648315429688	-331.5895080566407	848.5699462890627	-685.6650390625001	-294.7237854003907	794.9200439453127	-672.5180664062501	-260.9722595214844	794.745544433594	-674.2686767578126	-320.7403259277344	714.4536743164064	-683.0379638671876	-312.8721618652344	537.5841064453126	-676.4539184570314	-271.7747192382813	504.0838928222657	-800.5928955078127	-270.1672668457032	320.2259216308594	-723.1328125000001	-313.9382019042969	258.3186645507813	-643.2296752929689	-280.5071411132813	244.7980499267579	-674.6818847656251	-291.6907348632813	194.9551086425782	-700.6275024414064	-353.0162353515626	94.37343597412111	-642.8289184570314	-323.8583679199219	103.8628082275391	-732.9222412109376	-416.823211669922	48.50197219848634	-695.3043823242189	-196.3428344726563	57.39480590820314	-697.2344360351564	-194.7265167236329	62.43727111816408	-645.9573364257814	-238.3279876708985	26.83263206481934	-592.2496948242189	
397	1.98	-150.6822814941407	1764.713500976563	-803.6506347656252	-300.4402160644532	1690.919555664063	-874.2467041015627	-146.0293884277344	1777.585571289063	-946.0274047851565	-313.1487121582032	1573.712280273438	-900.7097167968752	-368.8115234375001	1262.218383789063	-896.4685668945315	-165.440185546875	1496.353393554688	-880.1023559570315	-160.4059448242188	1554.6015625	-1051.475708007813	-306.2804565429688	1458.373291015625	-1214.893920898438	-281.1155395507813	1415.047607421875	-1223.732543945313	-335.0208740234376	1405.230590820313	-1251.541870117188	-372.1706237792969	1334.110717773438	-1282.4189453125	-428.5822753906251	1336.26904296875	-1232.453979492188	-351.8843078613282	1135.963745117188	-1092.945678710938	-329.6798095703126	1083.17626953125	-1151.4501953125	-277.4874572753907	1140.822265625	-1085.916015625	-202.775131225586	1559.92041015625	-707.9899902343751	-360.1961669921876	1449.278686523438	-568.3615112304689	-333.9353027343751	1406.686279296875	-564.7820434570314	-382.9242553710938	1390.947509765625	-535.4569702148439	-421.0209350585939	1335.30078125	-510.1622314453126	-477.8523559570314	1319.864379882813	-578.0413208007814	-334.1572570800782	1142.888305664063	-678.2326660156251	-322.1511535644532	1093.937622070313	-615.3547363281251	-262.3031921386719	1116.004150390625	-696.7508544921876	-204.4323272705079	1035.243286132813	-1009.2470703125	-208.3824310302735	1036.187622070313	-775.0999755859377	-387.8912658691407	1144.054931640625	-883.8590087890627	-398.680389404297	1113.475463867188	-911.747741699219	-398.5432434082032	1113.349853515625	-854.5139770507815	-275.0749206542969	771.396667480469	-1115.768920898438	-249.9758453369141	689.9791259765626	-1120.41943359375	-205.3215026855469	687.3619384765626	-1097.053100585938	-281.5599975585938	639.2440185546876	-1114.333862304688	-284.0627441406251	539.3882446289064	-1114.899291992188	-253.4196929931641	517.0971679687501	-994.466247558594	-241.1073913574219	397.7527770996095	-1099.990356445313	-302.1218872070313	375.9918518066407	-1154.6005859375	-263.1466979980469	360.8779907226563	-1135.919921875	-273.8438415527344	275.8527221679688	-1120.836547851563	-363.8343811035157	92.18542480468751	-1150.89794921875	-329.6651916503907	95.75319671630861	-1062.368774414063	-421.8077087402345	50.37974929809572	-1098.638916015625	-195.5478668212891	61.83427047729494	-1111.979370117188	-198.5239410400391	60.85345840454103	-1159.1171875	-252.7160186767579	37.70091629028321	-1207.639404296875	-331.7870483398438	848.5386962890627	-685.7622070312501	-294.8398437500001	794.9600830078127	-672.5556640625001	-261.1463012695313	794.8251953125002	-674.4330444335939	-321.0858154296876	714.5393676757814	-682.9993896484376	-312.9623413085938	537.5310668945314	-676.5076293945314	-271.8070373535157	504.0987243652345	-800.6253051757815	-270.1502990722657	320.2666625976563	-723.1486816406251	-314.0511169433594	258.3744506835938	-643.2507934570314	-280.5298461914063	244.8063201904297	-674.6973876953126	-291.7062072753907	194.9352722167969	-700.6211547851564	-353.0497131347657	94.37664794921876	-642.7936401367189	-323.9324951171876	103.8641891479492	-732.9090576171876	-416.8677368164064	48.39064025878908	-695.3082885742189	-196.4570922851563	57.32130813598634	-697.2503051757814	-194.7371826171876	62.44759750366212	-645.9901733398439	-238.4087677001954	26.75427627563477	-592.2362060546876	
